<svg width="24" height="24" viewBox="0 0 24 24" fill="none" xmlns="http://www.w3.org/2000/svg">
<g opacity="0.5" clip-path="url(#clip0)">
<path d="M18.5625 13.1559C17.4608 13.1559 16.4257 12.6909 15.4882 11.9297L15.7147 10.8557L15.7222 10.8129C15.9292 9.67219 16.5697 7.75444 18.5618 7.75444C19.2786 7.75464 19.966 8.03948 20.4728 8.54635C20.9797 9.05322 21.2646 9.74062 21.2648 10.4574C21.2636 11.1736 20.9783 11.86 20.4715 12.3661C19.9648 12.8722 19.2779 13.1565 18.5618 13.1567L18.5625 13.1559ZM18.5625 5.01919C16.0238 5.01919 14.0505 6.66769 13.2502 9.38269C12.0315 7.55044 11.1015 5.34769 10.563 3.49219H7.8285V10.6052C7.82711 11.2803 7.55832 11.9273 7.08097 12.4047C6.60361 12.882 5.95658 13.1508 5.2815 13.1522C4.6066 13.1502 3.95991 12.8812 3.48268 12.404C3.00546 11.9268 2.73648 11.2801 2.7345 10.6052V3.49219H0V10.6052C0 13.5189 2.37075 15.9062 5.2815 15.9062C8.19525 15.9062 10.563 13.5197 10.563 10.6052V9.41344C11.094 10.5189 11.7465 11.6439 12.5392 12.6362L10.8637 20.5074H13.6605L14.8755 14.7962C15.9382 15.4757 17.1607 15.9054 18.5632 15.9054C21.5632 15.9054 24.0007 13.4522 24.0007 10.4559C24.0007 7.45594 21.5632 5.01844 18.5632 5.01844L18.5625 5.01919Z" fill="#08000F"/>
</g>
<defs>
<clipPath id="clip0">
<rect width="24" height="24" fill="white"/>
</clipPath>
</defs>
</svg>
